<?xml version="1.0" encoding="UTF-8"?>
<svg version="1.1" viewBox="0 0 512 512" xmlns="http://www.w3.org/2000/svg" xmlns:cc="http://creativecommons.org/ns#" xmlns:dc="http://purl.org/dc/elements/1.1/" xmlns:rdf="http://www.w3.org/1999/02/22-rdf-syntax-ns#">
 <title>ADS</title>
 <path d="m456.05 162.82c54.548 87.296 28.001 202.28-59.295 256.83-68.971 43.098-155.23 35.574-215.31-12.539l8.9284-5.5784c56.744 43.623 136.86 49.883 201.12 9.7278 82.654-51.647 107.79-160.52 56.141-243.17-35.431-56.703-91.871-86.885-154.22-83.227-17.05 0.99713-31.495 5.9365-31.495 5.9365s-0.75358-5.1902-1.8402-8.3627c76.361-20.631 148.49 4.4002 195.97 80.385zm-340.11 138.98 8.9493-5.592c-8.2774-41.436-2.421-81.417 17.988-117.9 0 0-5.0268-5.4759-7.9745-7.0304-21.787 39.43-28.806 85.961-18.962 130.52zm233.65 11.924c-1.0408-1.4863-1.6732-4.3128-1.8959-8.4772-0.15031-5.5004-0.22272-10.184-0.22272-14.052v-55.762c0-14.646-5.1881-24.609-15.567-29.889-10.38-5.2776-22.253-7.9178-35.618-7.9178-20.537 0-35.022 5.3521-43.459 16.06-5.3026 6.842-8.2889 15.576-8.9607 26.208h30.669c0.75358-4.6838 2.2592-8.4013 4.522-11.151 3.1632-3.7169 8.5532-5.5764 16.164-5.5764 6.7832 0 11.926 0.94769 15.432 2.8436 3.504 1.8959 5.2568 5.3349 5.2568 10.316 0 4.09-2.2857 7.1012-6.8519 9.033-2.5485 1.1153-6.7796 2.0458-12.695 2.7885l-10.898 1.338c-12.358 1.5608-21.72 4.1645-28.088 7.8075-11.61 6.6922-17.413 17.508-17.413 32.453 0 11.524 3.6066 20.428 10.824 26.71 7.2173 6.281 16.356 9.4234 27.426 9.4234 8.675 0 16.454-1.9698 23.334-5.9094 5.7575-3.3458 10.845-7.3979 15.257-12.156 0.22277 2.752 0.5194 5.2053 0.89254 7.362 0.37112 2.1567 1.0408 4.4611 2.0078 6.9144h34.573v-4.6838c-2.0879-0.96695-3.6487-2.1926-4.6896-3.681zm-33.794-38.922c-0.22465 10.633-3.262 17.955-9.1147 21.971-5.8527 4.0161-12.249 6.0219-19.194 6.0219-4.3794 0-8.0983-1.2069-11.155-3.6237-3.0585-2.4153-4.587-6.3378-4.587-11.766 0-6.0963 2.5027-10.595 7.5082-13.494 2.956-1.7091 7.8282-3.1595 14.609-4.3492l7.2345-1.338c3.618-0.66981 6.4616-1.3932 8.5345-2.1754 2.0728-0.7801 4.128-1.8022 6.1608-3.0664v11.819zm-90.177-165.09c0-25.247-20.466-45.715-45.715-45.715-25.249 0-45.713 20.468-45.713 45.715 0 25.247 20.468 45.715 45.715 45.715 25.247 0 45.713-20.468 45.713-45.715zm91.819 16.856c-20.215-3.2012-40.096-1.7965-58.575 3.4374-5.0492 19.489-17.282 37.154-35.703 48.663-13.78 8.6105-29.137 12.6-44.259 12.387-8.8312 14.653-15.04 31.219-17.881 49.158-4.5943 29.004 0.2971 57.317 12.373 81.788l-22.993 14.368c-7.4952-3.9761-16.863-3.8787-24.483 1.0695l-87.305 56.697c-11.186 7.2646-14.364 22.219-7.1012 33.403 7.2646 11.186 22.215 14.362 33.399 7.0991l87.307-56.698c7.7044-5.0018 11.608-13.654 10.919-22.209l22.226-13.888c20.563 28.366 51.963 48.878 89.302 54.792 74.576 11.812 144.61-39.068 156.42-113.64 11.812-74.576-39.067-144.61-113.64-156.42zm75.335 152.26c-8.458 53.402-58.604 89.835-112 81.377-53.4-8.458-89.835-58.606-81.377-112.01 8.458-53.4 58.606-89.835 112.01-81.377 53.4 8.458 89.832 58.606 81.374 112.01z" stroke-width=".067524"/>
</svg>
