<?xml version="1.0" encoding="UTF-8" standalone="no"?>
<svg
   version="1.1"
   viewBox="0 0 512 512"
   id="svg6"
   sodipodi:docname="ads.svg"
   inkscape:version="1.2.1 (9c6d41e410, 2022-07-14)"
   xmlns:inkscape="http://www.inkscape.org/namespaces/inkscape"
   xmlns:sodipodi="http://sodipodi.sourceforge.net/DTD/sodipodi-0.dtd"
   xmlns="http://www.w3.org/2000/svg"
   xmlns:svg="http://www.w3.org/2000/svg">
  <defs
     id="defs10" />
  <sodipodi:namedview
     id="namedview8"
     pagecolor="#ffffff"
     bordercolor="#000000"
     borderopacity="0.25"
     inkscape:showpageshadow="2"
     inkscape:pageopacity="0.0"
     inkscape:pagecheckerboard="0"
     inkscape:deskcolor="#d1d1d1"
     showgrid="false"
     inkscape:zoom="0.53378276"
     inkscape:cx="297.87399"
     inkscape:cy="299.74741"
     inkscape:window-width="1920"
     inkscape:window-height="939"
     inkscape:window-x="0"
     inkscape:window-y="32"
     inkscape:window-maximized="0"
     inkscape:current-layer="svg6" />
  <title
     id="title2">ADS</title>
  <path
     id="path411"
     d="M 256,7.999998 A 248,248 0 0 0 7.9999985,256 248,248 0 0 0 34.068358,365.48242 l 51.80078,-33.64063 c 7.62,-4.94819 16.987232,-5.04445 24.482432,-1.06836 l 22.99414,-14.36914 c -12.07589,-24.47097 -16.96735,-52.78314 -12.37305,-81.78711 2.841,-17.93898 9.04967,-34.50521 17.88086,-49.1582 15.12198,0.213 30.47978,-3.77623 44.25976,-12.38672 18.42099,-11.50899 30.65198,-29.17508 35.70118,-48.66406 18.47898,-5.2339 38.36119,-6.6387 58.57617,-3.4375 l 0.006,0.008 c 74.57292,11.80999 125.45261,81.844 113.64062,156.41992 -11.80999,74.57193 -81.84595,125.45262 -156.42187,113.64063 -37.33897,-5.914 -68.7378,-26.427 -89.30078,-54.79297 l -22.22657,13.88867 c 0.689,8.55499 -3.21357,17.20719 -10.91797,22.20899 L 59.124999,406.78906 A 248,248 0 0 0 256,504 248,248 0 0 0 504,256 248,248 0 0 0 256,7.999998 Z m -116.14453,50.40039 c 25.24898,0 45.7168,20.467869 45.7168,45.714842 0,25.24698 -20.46787,45.71484 -45.71485,45.71484 -25.24697,0 -45.714842,-20.46786 -45.714842,-45.71484 0,-25.246973 20.463922,-45.714842 45.712892,-45.714842 z m 136.33399,11.611328 c 54.72665,1.898108 104.20253,30.224344 139.81249,87.212894 54.54676,87.29573 28.00052,202.27847 -59.29492,256.82812 -68.97093,43.09796 -155.2306,35.57389 -215.31054,-12.53906 l 8.92969,-5.57813 c 56.74394,43.62296 136.8592,49.88368 201.11914,9.72852 82.65391,-51.64695 107.78957,-160.52001 56.14062,-243.16992 -35.43097,-56.70295 -91.86981,-86.886515 -154.21875,-83.228517 -17.04998,0.997129 -31.49609,5.9375 -31.49609,5.9375 0,0 -0.75323,-5.190784 -1.83985,-8.363282 19.09023,-5.157744 37.91599,-7.460827 56.15821,-6.828125 z M 251.5586,160.09961 c -45.49074,2.03776 -84.8102,35.77309 -92.21094,82.49804 -8.45799,53.40395 27.97701,103.55178 81.37695,112.00977 53.39595,8.45799 103.54201,-27.97501 112,-81.37696 h 0.008 c 8.458,-53.40394 -27.97505,-103.55177 -81.375,-112.00976 -6.67549,-1.05725 -13.30015,-1.4122 -19.79882,-1.12109 z m -156.703132,5.58203 c 2.9477,1.55449 7.974612,7.02929 7.974612,7.02929 -20.408982,36.48297 -26.265682,76.46444 -17.988282,117.90039 l -8.94922,5.5918 v -0.002 c -9.84399,-44.55896 -2.8241,-91.08957 18.96289,-130.51953 z m 161.382812,26.34765 c 13.36499,0 25.23916,2.64038 35.61914,7.91797 10.37889,5.28 15.56641,15.24269 15.56641,29.88867 v 55.76172 c 0,3.868 0.0723,8.55234 0.22266,14.05274 0.2227,4.16439 0.85568,6.99026 1.89648,8.47656 l -0.002,0.002 c 1.0409,1.4884 2.60155,2.71469 4.68945,3.68164 v 4.6836 h -34.57226 c -0.967,-2.4533 -1.6367,-4.75737 -2.00782,-6.91407 -0.37314,-2.15669 -0.6698,-4.61128 -0.89257,-7.36328 -4.412,4.7581 -9.50032,8.81046 -15.25782,12.15625 -6.87999,3.9396 -14.65899,5.91016 -23.33398,5.91016 -11.06999,0 -20.20849,-3.14284 -27.42578,-9.42383 -7.2174,-6.28199 -10.82422,-15.18695 -10.82422,-26.71094 0,-14.94498 5.80407,-25.75898 17.41406,-32.45117 6.36799,-3.643 15.7299,-6.24779 28.08789,-7.80859 l 10.89844,-1.33789 c 5.91539,-0.7427 10.14681,-1.67377 12.69531,-2.78907 4.5662,-1.93179 6.85156,-4.9432 6.85156,-9.0332 0,-4.98109 -1.75381,-8.41855 -5.25781,-10.31445 -3.50599,-1.89591 -8.64845,-2.84375 -15.43164,-2.84375 -7.61079,0 -13.00086,1.85927 -16.16406,5.57617 -2.2628,2.7497 -3.76791,6.4666 -4.52149,11.15039 h -30.66992 c 0.6718,-10.63199 3.65835,-19.36504 8.96094,-26.20703 8.43699,-10.70789 22.922,-16.06055 43.45898,-16.06055 z m 19.50586,65.35547 c -2.03279,1.2642 -4.08735,2.28631 -6.16015,3.06641 -2.0729,0.7822 -4.91716,1.50597 -8.53516,2.17578 l -7.23437,1.33789 c -6.7808,1.1897 -11.65338,2.64051 -14.60938,4.34961 -5.00549,2.899 -7.50781,7.39785 -7.50781,13.49414 0,5.42819 1.52939,9.35033 4.58789,11.76562 3.0567,2.4168 6.7749,3.62305 11.1543,3.62305 6.94499,0 13.34066,-2.00539 19.19336,-6.02148 5.85269,-4.016 8.89058,-11.33772 9.11523,-21.97071 h -0.004 z" />
</svg>
