<?xml version="1.0" encoding="UTF-8" standalone="no"?>
<svg
   viewBox="0 0 512 512"
   version="1.1"
   id="svg8"
   inkscape:version="1.2.1 (9c6d41e410, 2022-07-14)"
   sodipodi:docname="google-scholar.svg"
   xmlns:inkscape="http://www.inkscape.org/namespaces/inkscape"
   xmlns:sodipodi="http://sodipodi.sourceforge.net/DTD/sodipodi-0.dtd"
   xmlns="http://www.w3.org/2000/svg"
   xmlns:svg="http://www.w3.org/2000/svg"
   xmlns:rdf="http://www.w3.org/1999/02/22-rdf-syntax-ns#"
   xmlns:cc="http://creativecommons.org/ns#"
   xmlns:dc="http://purl.org/dc/elements/1.1/">
  <title
     id="title833">Google Scholar</title>
  <defs
     id="defs2" />
  <sodipodi:namedview
     id="base"
     pagecolor="#ffffff"
     bordercolor="#666666"
     borderopacity="1.0"
     inkscape:pageopacity="0.0"
     inkscape:pageshadow="2"
     inkscape:zoom="0.375"
     inkscape:cx="586.66667"
     inkscape:cy="688"
     inkscape:document-units="px"
     inkscape:current-layer="layer6"
     inkscape:document-rotation="0"
     showgrid="false"
     units="px"
     showguides="false"
     inkscape:guide-bbox="true"
     inkscape:window-width="960"
     inkscape:window-height="939"
     inkscape:window-x="960"
     inkscape:window-y="32"
     inkscape:window-maximized="0"
     inkscape:showpageshadow="2"
     inkscape:pagecheckerboard="0"
     inkscape:deskcolor="#d1d1d1">
    <inkscape:grid
       type="xygrid"
       id="grid10"
       empspacing="4" />
    <sodipodi:guide
       position="384.00001,64"
       orientation="0,1"
       id="guide23"
       inkscape:label="baseline"
       inkscape:locked="false"
       inkscape:color="rgb(0,0,255)" />
  </sodipodi:namedview>
  <metadata
     id="metadata5">
    <rdf:RDF>
      <cc:Work
         rdf:about="">
        <dc:format>image/svg+xml</dc:format>
        <dc:type
           rdf:resource="http://purl.org/dc/dcmitype/StillImage" />
        <dc:title>Google Scholar</dc:title>
        <cc:license
           rdf:resource="http://scripts.sil.org/OFL" />
        <dc:subject>
          <rdf:Bag>
            <rdf:li>Google Scholar</rdf:li>
          </rdf:Bag>
        </dc:subject>
      </cc:Work>
      <cc:License
         rdf:about="http://scripts.sil.org/OFL">
        <cc:permits
           rdf:resource="http://scripts.sil.org/pub/OFL/Reproduction" />
        <cc:permits
           rdf:resource="http://scripts.sil.org/pub/OFL/Distribution" />
        <cc:permits
           rdf:resource="http://scripts.sil.org/pub/OFL/Embedding" />
        <cc:permits
           rdf:resource="http://scripts.sil.org/pub/OFL/DerivativeWorks" />
        <cc:requires
           rdf:resource="http://scripts.sil.org/pub/OFL/Notice" />
        <cc:requires
           rdf:resource="http://scripts.sil.org/pub/OFL/Attribution" />
        <cc:requires
           rdf:resource="http://scripts.sil.org/pub/OFL/ShareAlike" />
        <cc:requires
           rdf:resource="http://scripts.sil.org/pub/OFL/DerivativeRenaming" />
        <cc:requires
           rdf:resource="http://scripts.sil.org/pub/OFL/BundlingWhenSelling" />
      </cc:License>
    </rdf:RDF>
  </metadata>
  <g
     inkscape:groupmode="layer"
     id="layer6"
     inkscape:label="icon">
    <path
       id="path361"
       d="M 256,8 A 248,248 0 0 0 8,256 248,248 0 0 0 256,504 248,248 0 0 0 504,256 248,248 0 0 0 256,8 Z m -50.81055,63.05273 h 206.0332 l -19.03906,14.86328 v 26.23242 c 7.06948,0.90776 6.32031,5.15543 6.32031,10.23829 v 123.9414 c 0,5.73987 -4.69608,10.43555 -10.43554,10.43555 h -3.8418 c -5.73986,0 -10.43555,-4.6961 -10.43555,-10.43555 v -123.9414 c 0,-5.09508 -0.74126,-9.34861 6.38086,-10.24415 V 95.65429 l -54.81836,44.95704 c 0.63338,1.17408 1.23475,1.92527 1.80664,2.91015 4.81653,8.52761 7.26954,19.13134 7.26954,32.08985 0,9.93309 -1.65506,18.85966 -5.01172,26.73828 -3.34155,7.8803 -7.4058,14.31533 -12.14649,19.27343 -4.74062,4.9754 -9.49578,9.51995 -14.25195,13.61329 -4.7546,4.10134 -8.81888,8.37624 -12.14649,12.8164 -3.35375,4.42501 -5.02539,9.00152 -5.02539,13.74219 0,4.74866 2.16823,9.57241 6.48828,14.43359 4.30448,4.87636 9.60126,9.60264 15.86329,14.26953 6.27591,4.63573 12.53683,9.78177 18.79882,15.38086 6.27554,5.58985 11.54317,12.78469 15.84766,21.52344 4.33523,8.76784 6.50195,18.42203 6.50195,29.0332 0,13.99734 -3.56874,26.63971 -10.6875,37.89063 -7.13437,11.2045 -16.43567,20.14627 -27.85937,26.70117 -11.45402,6.59958 -23.70411,11.56528 -36.76758,14.92188 -13.09422,3.32595 -26.08451,4.99804 -39.05859,4.99804 -8.18879,0 -16.45157,-0.63286 -24.76172,-1.92578 -8.3367,-1.29462 -16.69008,-3.58179 -25.10352,-6.80273 -8.42857,-3.24414 -15.89377,-7.22641 -22.36523,-12.01172 -6.48707,-4.73311 -11.7089,-10.84269 -15.71289,-18.28516 -4.00401,-7.4424 -5.99219,-15.81168 -5.99219,-25.10547 0,-11.02587 3.07076,-21.25143 9.22656,-30.78711 6.15542,-9.46614 14.31281,-17.37053 24.45703,-23.63086 17.70086,-11.01067 45.46921,-17.81432 83.26172,-20.38671 -8.63847,-10.79955 -12.97265,-20.96603 -12.97265,-30.47852 0,-5.41283 1.41442,-11.21455 4.21484,-17.47656 -4.51562,0.63215 -9.16587,0.98633 -13.9082,0.98633 -20.30107,0 -37.44527,-6.59849 -51.36719,-19.88868 -13.9219,-13.26826 -20.87695,-29.87608 -20.87695,-49.95507 0,-2.09914 0.0613,-3.95117 0.21093,-5.99805 H 80.77734 Z m 36.27344,44.31055 c -12.94504,0 -22.87949,4.65808 -29.80274,13.95312 -6.92151,9.2706 -10.38476,20.49831 -10.38476,33.68946 0,11.2353 1.89659,22.67594 5.68945,34.33984 3.77767,11.65799 9.96359,22.06503 18.63281,31.23828 8.63846,9.19642 18.69351,13.78711 30.11719,13.78711 12.73349,0 22.682,-4.26685 29.81641,-12.80078 h 0.002 c 7.10318,-8.51962 10.66992,-19.27199 10.66992,-32.22461 0,-11.03343 -1.8805,-22.58354 -5.6582,-34.66211 -3.76376,-12.09375 -10.04052,-23.00635 -18.80078,-32.7207 -8.72988,-9.74682 -18.84242,-14.59961 -30.28125,-14.59961 z m 21.40234,198.91211 c -9.28744,0 -18.42246,0.82117 -27.39258,2.46094 -8.97012,1.59511 -17.82129,4.28897 -26.55078,8.08984 -8.76025,3.77936 -15.8347,9.33418 -21.22265,16.67969 -5.41876,7.33624 -8.11133,15.9749 -8.11133,25.91601 0,9.47369 2.37656,17.92765 7.13281,25.28711 4.74233,7.31428 11.00345,13.04128 18.78516,17.14258 7.78166,4.10896 15.93867,7.20915 24.45703,9.24805 8.53392,2.02498 17.21876,3.07812 26.06836,3.07812 17.50363,0 32.57198,-3.94195 45.21484,-11.82226 12.6117,-7.87862 18.9336,-20.04689 18.9336,-36.46875 0,-3.45402 -0.48218,-6.8555 -1.43165,-10.17383 -0.99247,-3.35666 -1.97017,-6.23147 -2.93359,-8.61719 -0.96339,-2.34103 -2.79845,-5.16363 -5.50781,-8.41406 -2.69422,-3.25808 -4.75691,-5.66685 -6.14258,-7.26953 -1.41472,-1.65537 -4.06214,-4.01852 -7.96289,-7.14258 -3.86703,-3.13796 -6.33452,-5.09367 -7.43359,-5.81641 -1.0835,-0.75985 -3.89849,-2.81326 -8.42969,-6.14844 -4.52994,-3.36469 -7.01136,-5.14824 -7.44922,-5.35937 -2.37814,-0.42857 -5.71897,-0.66992 -10.02344,-0.66992 z" />
  </g>
</svg>
